<svg width="1920" height="1008" viewBox="0 0 1920 1008" fill="none" xmlns="http://www.w3.org/2000/svg">
<path d="M21.9355 303.49V-18.4893" stroke="#66ADAC" stroke-width="0.5" stroke-miterlimit="10"/>
<path d="M57.8711 303.49V-18.4888" stroke="#66ADAC" stroke-width="0.5" stroke-miterlimit="10"/>
<path d="M93.7764 303.49V-18.4893" stroke="#66ADAC" stroke-width="0.5" stroke-miterlimit="10"/>
<path d="M129.714 303.49V-18.4893" stroke="#66ADAC" stroke-width="0.5" stroke-miterlimit="10"/>
<path d="M165.614 303.49V-18.4893" stroke="#66ADAC" stroke-width="0.5" stroke-miterlimit="10"/>
<path d="M199.802 303.49V-18.4893" stroke="#66ADAC" stroke-width="0.5" stroke-miterlimit="10"/>
<path d="M-1.10547 24.8259H214.341" stroke="#66ADAC" stroke-width="0.5" stroke-miterlimit="10"/>
<path d="M-1.09863 212.935H214.348" stroke="#66ADAC" stroke-width="0.5" stroke-miterlimit="10"/>
<path d="M-1.09961 62.4343H214.347" stroke="#66ADAC" stroke-width="0.5" stroke-miterlimit="10"/>
<path d="M-1.09863 100.079H214.348" stroke="#66ADAC" stroke-width="0.5" stroke-miterlimit="10"/>
<path d="M-1.09668 137.687H214.349" stroke="#66ADAC" stroke-width="0.5" stroke-miterlimit="10"/>
<path d="M-1.10449 175.293H214.342" stroke="#66ADAC" stroke-width="0.5" stroke-miterlimit="10"/>
<path d="M-1.09863 288.183H214.348" stroke="#66ADAC" stroke-width="0.5" stroke-miterlimit="10"/>
<path d="M-1.17383 250.54H214.272" stroke="#66ADAC" stroke-width="0.5" stroke-miterlimit="10"/>
<path d="M22.1094 867.979V546" stroke="#66ADAC" stroke-width="0.5" stroke-miterlimit="10"/>
<path d="M58.0449 867.979V546" stroke="#66ADAC" stroke-width="0.5" stroke-miterlimit="10"/>
<path d="M93.9502 867.979V546" stroke="#66ADAC" stroke-width="0.5" stroke-miterlimit="10"/>
<path d="M129.888 867.979V546" stroke="#66ADAC" stroke-width="0.5" stroke-miterlimit="10"/>
<path d="M165.788 867.979V546" stroke="#66ADAC" stroke-width="0.5" stroke-miterlimit="10"/>
<path d="M199.976 867.979V546" stroke="#66ADAC" stroke-width="0.5" stroke-miterlimit="10"/>
<path d="M-0.931641 589.315H214.515" stroke="#66ADAC" stroke-width="0.5" stroke-miterlimit="10"/>
<path d="M-0.925781 551.713H214.52" stroke="#66ADAC" stroke-width="0.5" stroke-miterlimit="10"/>
<path d="M-0.924805 777.424H214.521" stroke="#66ADAC" stroke-width="0.5" stroke-miterlimit="10"/>
<path d="M-0.925781 626.924H214.52" stroke="#66ADAC" stroke-width="0.5" stroke-miterlimit="10"/>
<path d="M-0.924805 664.569H214.521" stroke="#66ADAC" stroke-width="0.5" stroke-miterlimit="10"/>
<path d="M-0.922852 702.177H214.523" stroke="#66ADAC" stroke-width="0.5" stroke-miterlimit="10"/>
<path d="M-0.930664 739.782H214.516" stroke="#66ADAC" stroke-width="0.5" stroke-miterlimit="10"/>
<path d="M-0.924805 852.672H214.521" stroke="#66ADAC" stroke-width="0.5" stroke-miterlimit="10"/>
<path d="M-1 815.029H214.446" stroke="#66ADAC" stroke-width="0.5" stroke-miterlimit="10"/>
<path d="M22.1094 566.979V245" stroke="#66ADAC" stroke-width="0.5" stroke-miterlimit="10"/>
<path d="M58.0449 566.979V245" stroke="#66ADAC" stroke-width="0.5" stroke-miterlimit="10"/>
<path d="M93.9502 566.979V245" stroke="#66ADAC" stroke-width="0.5" stroke-miterlimit="10"/>
<path d="M129.888 566.979V245" stroke="#66ADAC" stroke-width="0.5" stroke-miterlimit="10"/>
<path d="M165.788 566.979V245" stroke="#66ADAC" stroke-width="0.5" stroke-miterlimit="10"/>
<path d="M199.976 566.979V245" stroke="#66ADAC" stroke-width="0.5" stroke-miterlimit="10"/>
<path d="M-0.931641 288.315H214.515" stroke="#66ADAC" stroke-width="0.5" stroke-miterlimit="10"/>
<path d="M-0.925781 250.713H214.52" stroke="#66ADAC" stroke-width="0.5" stroke-miterlimit="10"/>
<path d="M-0.924805 476.424H214.521" stroke="#66ADAC" stroke-width="0.5" stroke-miterlimit="10"/>
<path d="M-0.925781 325.924H214.52" stroke="#66ADAC" stroke-width="0.5" stroke-miterlimit="10"/>
<path d="M-0.924805 363.569H214.521" stroke="#66ADAC" stroke-width="0.5" stroke-miterlimit="10"/>
<path d="M-0.922852 401.177H214.523" stroke="#66ADAC" stroke-width="0.5" stroke-miterlimit="10"/>
<path d="M-0.930664 438.782H214.516" stroke="#66ADAC" stroke-width="0.5" stroke-miterlimit="10"/>
<path d="M-0.924805 551.672H214.521" stroke="#66ADAC" stroke-width="0.5" stroke-miterlimit="10"/>
<path d="M-1 514.029H214.446" stroke="#66ADAC" stroke-width="0.5" stroke-miterlimit="10"/>
<path d="M22.2832 1131.47V809.489" stroke="#66ADAC" stroke-width="0.5" stroke-miterlimit="10"/>
<path d="M58.2188 1131.47V809.49" stroke="#66ADAC" stroke-width="0.5" stroke-miterlimit="10"/>
<path d="M94.124 1131.47V809.489" stroke="#66ADAC" stroke-width="0.5" stroke-miterlimit="10"/>
<path d="M130.062 1131.47V809.489" stroke="#66ADAC" stroke-width="0.5" stroke-miterlimit="10"/>
<path d="M165.962 1131.47V809.489" stroke="#66ADAC" stroke-width="0.5" stroke-miterlimit="10"/>
<path d="M200.149 1131.47V809.489" stroke="#66ADAC" stroke-width="0.5" stroke-miterlimit="10"/>
<path d="M-0.757812 852.804H214.688" stroke="#66ADAC" stroke-width="0.5" stroke-miterlimit="10"/>
<path d="M-0.751953 815.202H214.694" stroke="#66ADAC" stroke-width="0.5" stroke-miterlimit="10"/>
<path d="M-0.751953 890.413H214.694" stroke="#66ADAC" stroke-width="0.5" stroke-miterlimit="10"/>
<path d="M-0.750977 928.058H214.695" stroke="#66ADAC" stroke-width="0.5" stroke-miterlimit="10"/>
<path d="M-0.749023 965.666H214.697" stroke="#66ADAC" stroke-width="0.5" stroke-miterlimit="10"/>
<path d="M-0.756836 1003.27H214.689" stroke="#66ADAC" stroke-width="0.5" stroke-miterlimit="10"/>
<path d="M452.109 566.979V245" stroke="#66ADAC" stroke-width="0.5" stroke-miterlimit="10"/>
<path d="M488.045 566.979V245" stroke="#66ADAC" stroke-width="0.5" stroke-miterlimit="10"/>
<path d="M523.95 566.979V245" stroke="#66ADAC" stroke-width="0.5" stroke-miterlimit="10"/>
<path d="M559.888 566.979V245" stroke="#66ADAC" stroke-width="0.5" stroke-miterlimit="10"/>
<path d="M595.788 566.979V245" stroke="#66ADAC" stroke-width="0.5" stroke-miterlimit="10"/>
<path d="M629.976 566.979V245" stroke="#66ADAC" stroke-width="0.5" stroke-miterlimit="10"/>
<path d="M429.068 288.315H644.515" stroke="#66ADAC" stroke-width="0.5" stroke-miterlimit="10"/>
<path d="M429.074 250.713H644.52" stroke="#66ADAC" stroke-width="0.5" stroke-miterlimit="10"/>
<path d="M429.075 476.424H644.521" stroke="#66ADAC" stroke-width="0.5" stroke-miterlimit="10"/>
<path d="M429.074 325.924H644.52" stroke="#66ADAC" stroke-width="0.5" stroke-miterlimit="10"/>
<path d="M429.075 363.569H644.521" stroke="#66ADAC" stroke-width="0.5" stroke-miterlimit="10"/>
<path d="M429.077 401.177H644.523" stroke="#66ADAC" stroke-width="0.5" stroke-miterlimit="10"/>
<path d="M429.069 438.782H644.516" stroke="#66ADAC" stroke-width="0.5" stroke-miterlimit="10"/>
<path d="M429.075 551.672H644.521" stroke="#66ADAC" stroke-width="0.5" stroke-miterlimit="10"/>
<path d="M429 514.029H644.446" stroke="#66ADAC" stroke-width="0.5" stroke-miterlimit="10"/>
<path d="M452.283 1131.47V809.489" stroke="#66ADAC" stroke-width="0.5" stroke-miterlimit="10"/>
<path d="M488.219 1131.47V809.49" stroke="#66ADAC" stroke-width="0.5" stroke-miterlimit="10"/>
<path d="M524.124 1131.47V809.489" stroke="#66ADAC" stroke-width="0.5" stroke-miterlimit="10"/>
<path d="M560.062 1131.47V809.489" stroke="#66ADAC" stroke-width="0.5" stroke-miterlimit="10"/>
<path d="M595.962 1131.47V809.489" stroke="#66ADAC" stroke-width="0.5" stroke-miterlimit="10"/>
<path d="M630.149 1131.47V809.489" stroke="#66ADAC" stroke-width="0.5" stroke-miterlimit="10"/>
<path d="M429.242 852.804H644.688" stroke="#66ADAC" stroke-width="0.5" stroke-miterlimit="10"/>
<path d="M429.248 815.202H644.694" stroke="#66ADAC" stroke-width="0.5" stroke-miterlimit="10"/>
<path d="M429.248 890.413H644.694" stroke="#66ADAC" stroke-width="0.5" stroke-miterlimit="10"/>
<path d="M429.249 928.058H644.695" stroke="#66ADAC" stroke-width="0.5" stroke-miterlimit="10"/>
<path d="M429.251 965.666H644.697" stroke="#66ADAC" stroke-width="0.5" stroke-miterlimit="10"/>
<path d="M429.243 1003.27H644.689" stroke="#66ADAC" stroke-width="0.5" stroke-miterlimit="10"/>
<path d="M882.109 566.979V245" stroke="#66ADAC" stroke-width="0.5" stroke-miterlimit="10"/>
<path d="M918.045 566.979V245" stroke="#66ADAC" stroke-width="0.5" stroke-miterlimit="10"/>
<path d="M953.95 566.979V245" stroke="#66ADAC" stroke-width="0.5" stroke-miterlimit="10"/>
<path d="M989.888 566.979V245" stroke="#66ADAC" stroke-width="0.5" stroke-miterlimit="10"/>
<path d="M1025.79 566.979V245" stroke="#66ADAC" stroke-width="0.5" stroke-miterlimit="10"/>
<path d="M1059.98 566.979V245" stroke="#66ADAC" stroke-width="0.5" stroke-miterlimit="10"/>
<path d="M859.068 288.315H1074.51" stroke="#66ADAC" stroke-width="0.5" stroke-miterlimit="10"/>
<path d="M859.074 250.713H1074.52" stroke="#66ADAC" stroke-width="0.5" stroke-miterlimit="10"/>
<path d="M859.075 476.424H1074.52" stroke="#66ADAC" stroke-width="0.5" stroke-miterlimit="10"/>
<path d="M859.074 325.924H1074.52" stroke="#66ADAC" stroke-width="0.5" stroke-miterlimit="10"/>
<path d="M859.075 363.569H1074.52" stroke="#66ADAC" stroke-width="0.5" stroke-miterlimit="10"/>
<path d="M859.077 401.177H1074.52" stroke="#66ADAC" stroke-width="0.5" stroke-miterlimit="10"/>
<path d="M859.069 438.782H1074.52" stroke="#66ADAC" stroke-width="0.5" stroke-miterlimit="10"/>
<path d="M859.075 551.672H1074.52" stroke="#66ADAC" stroke-width="0.5" stroke-miterlimit="10"/>
<path d="M859 514.029H1074.45" stroke="#66ADAC" stroke-width="0.5" stroke-miterlimit="10"/>
<path d="M882.283 1131.47V809.489" stroke="#66ADAC" stroke-width="0.5" stroke-miterlimit="10"/>
<path d="M918.219 1131.47V809.49" stroke="#66ADAC" stroke-width="0.5" stroke-miterlimit="10"/>
<path d="M954.124 1131.47V809.489" stroke="#66ADAC" stroke-width="0.5" stroke-miterlimit="10"/>
<path d="M990.062 1131.47V809.489" stroke="#66ADAC" stroke-width="0.5" stroke-miterlimit="10"/>
<path d="M1025.96 1131.47V809.489" stroke="#66ADAC" stroke-width="0.5" stroke-miterlimit="10"/>
<path d="M1060.15 1131.47V809.489" stroke="#66ADAC" stroke-width="0.5" stroke-miterlimit="10"/>
<path d="M859.242 852.804H1074.69" stroke="#66ADAC" stroke-width="0.5" stroke-miterlimit="10"/>
<path d="M859.248 815.202H1074.69" stroke="#66ADAC" stroke-width="0.5" stroke-miterlimit="10"/>
<path d="M859.248 890.413H1074.69" stroke="#66ADAC" stroke-width="0.5" stroke-miterlimit="10"/>
<path d="M859.249 928.058H1074.7" stroke="#66ADAC" stroke-width="0.5" stroke-miterlimit="10"/>
<path d="M859.251 965.666H1074.7" stroke="#66ADAC" stroke-width="0.5" stroke-miterlimit="10"/>
<path d="M859.243 1003.27H1074.69" stroke="#66ADAC" stroke-width="0.5" stroke-miterlimit="10"/>
<path d="M1312.11 566.979V245" stroke="#66ADAC" stroke-width="0.5" stroke-miterlimit="10"/>
<path d="M1348.04 566.979V245" stroke="#66ADAC" stroke-width="0.5" stroke-miterlimit="10"/>
<path d="M1383.95 566.979V245" stroke="#66ADAC" stroke-width="0.5" stroke-miterlimit="10"/>
<path d="M1419.89 566.979V245" stroke="#66ADAC" stroke-width="0.5" stroke-miterlimit="10"/>
<path d="M1455.79 566.979V245" stroke="#66ADAC" stroke-width="0.5" stroke-miterlimit="10"/>
<path d="M1489.98 566.979V245" stroke="#66ADAC" stroke-width="0.5" stroke-miterlimit="10"/>
<path d="M1289.07 288.315H1504.51" stroke="#66ADAC" stroke-width="0.5" stroke-miterlimit="10"/>
<path d="M1289.07 250.713H1504.52" stroke="#66ADAC" stroke-width="0.5" stroke-miterlimit="10"/>
<path d="M1289.08 476.424H1504.52" stroke="#66ADAC" stroke-width="0.5" stroke-miterlimit="10"/>
<path d="M1289.07 325.924H1504.52" stroke="#66ADAC" stroke-width="0.5" stroke-miterlimit="10"/>
<path d="M1289.08 363.569H1504.52" stroke="#66ADAC" stroke-width="0.5" stroke-miterlimit="10"/>
<path d="M1289.08 401.177H1504.52" stroke="#66ADAC" stroke-width="0.5" stroke-miterlimit="10"/>
<path d="M1289.07 438.782H1504.52" stroke="#66ADAC" stroke-width="0.5" stroke-miterlimit="10"/>
<path d="M1289.08 551.672H1504.52" stroke="#66ADAC" stroke-width="0.5" stroke-miterlimit="10"/>
<path d="M1289 514.029H1504.45" stroke="#66ADAC" stroke-width="0.5" stroke-miterlimit="10"/>
<path d="M1312.28 1131.47V809.489" stroke="#66ADAC" stroke-width="0.5" stroke-miterlimit="10"/>
<path d="M1348.22 1131.47V809.49" stroke="#66ADAC" stroke-width="0.5" stroke-miterlimit="10"/>
<path d="M1384.12 1131.47V809.489" stroke="#66ADAC" stroke-width="0.5" stroke-miterlimit="10"/>
<path d="M1420.06 1131.47V809.489" stroke="#66ADAC" stroke-width="0.5" stroke-miterlimit="10"/>
<path d="M1455.96 1131.47V809.489" stroke="#66ADAC" stroke-width="0.5" stroke-miterlimit="10"/>
<path d="M1490.15 1131.47V809.489" stroke="#66ADAC" stroke-width="0.5" stroke-miterlimit="10"/>
<path d="M1289.24 852.804H1504.69" stroke="#66ADAC" stroke-width="0.5" stroke-miterlimit="10"/>
<path d="M1289.25 815.202H1504.69" stroke="#66ADAC" stroke-width="0.5" stroke-miterlimit="10"/>
<path d="M1289.25 890.413H1504.69" stroke="#66ADAC" stroke-width="0.5" stroke-miterlimit="10"/>
<path d="M1289.25 928.058H1504.7" stroke="#66ADAC" stroke-width="0.5" stroke-miterlimit="10"/>
<path d="M1289.25 965.666H1504.7" stroke="#66ADAC" stroke-width="0.5" stroke-miterlimit="10"/>
<path d="M1289.24 1003.27H1504.69" stroke="#66ADAC" stroke-width="0.5" stroke-miterlimit="10"/>
<path d="M1742.11 566.979V245" stroke="#66ADAC" stroke-width="0.5" stroke-miterlimit="10"/>
<path d="M1778.04 566.979V245" stroke="#66ADAC" stroke-width="0.5" stroke-miterlimit="10"/>
<path d="M1813.95 566.979V245" stroke="#66ADAC" stroke-width="0.5" stroke-miterlimit="10"/>
<path d="M1849.89 566.979V245" stroke="#66ADAC" stroke-width="0.5" stroke-miterlimit="10"/>
<path d="M1885.79 566.979V245" stroke="#66ADAC" stroke-width="0.5" stroke-miterlimit="10"/>
<path d="M1919.98 566.979V245" stroke="#66ADAC" stroke-width="0.5" stroke-miterlimit="10"/>
<path d="M1719.07 288.315H1934.51" stroke="#66ADAC" stroke-width="0.5" stroke-miterlimit="10"/>
<path d="M1719.07 250.713H1934.52" stroke="#66ADAC" stroke-width="0.5" stroke-miterlimit="10"/>
<path d="M1719.08 476.424H1934.52" stroke="#66ADAC" stroke-width="0.5" stroke-miterlimit="10"/>
<path d="M1719.07 325.924H1934.52" stroke="#66ADAC" stroke-width="0.5" stroke-miterlimit="10"/>
<path d="M1719.08 363.569H1934.52" stroke="#66ADAC" stroke-width="0.5" stroke-miterlimit="10"/>
<path d="M1719.08 401.177H1934.52" stroke="#66ADAC" stroke-width="0.5" stroke-miterlimit="10"/>
<path d="M1719.07 438.782H1934.52" stroke="#66ADAC" stroke-width="0.5" stroke-miterlimit="10"/>
<path d="M1719.08 551.672H1934.52" stroke="#66ADAC" stroke-width="0.5" stroke-miterlimit="10"/>
<path d="M1719 514.029H1934.45" stroke="#66ADAC" stroke-width="0.5" stroke-miterlimit="10"/>
<path d="M1742.28 1131.47V809.489" stroke="#66ADAC" stroke-width="0.5" stroke-miterlimit="10"/>
<path d="M1778.22 1131.47V809.49" stroke="#66ADAC" stroke-width="0.5" stroke-miterlimit="10"/>
<path d="M1814.12 1131.47V809.489" stroke="#66ADAC" stroke-width="0.5" stroke-miterlimit="10"/>
<path d="M1850.06 1131.47V809.489" stroke="#66ADAC" stroke-width="0.5" stroke-miterlimit="10"/>
<path d="M1885.96 1131.47V809.489" stroke="#66ADAC" stroke-width="0.5" stroke-miterlimit="10"/>
<path d="M1920.15 1131.47V809.489" stroke="#66ADAC" stroke-width="0.5" stroke-miterlimit="10"/>
<path d="M1719.24 852.804H1934.69" stroke="#66ADAC" stroke-width="0.5" stroke-miterlimit="10"/>
<path d="M1719.25 815.202H1934.69" stroke="#66ADAC" stroke-width="0.5" stroke-miterlimit="10"/>
<path d="M1719.25 890.413H1934.69" stroke="#66ADAC" stroke-width="0.5" stroke-miterlimit="10"/>
<path d="M1719.25 928.058H1934.7" stroke="#66ADAC" stroke-width="0.5" stroke-miterlimit="10"/>
<path d="M1719.25 965.666H1934.7" stroke="#66ADAC" stroke-width="0.5" stroke-miterlimit="10"/>
<path d="M1719.24 1003.27H1934.69" stroke="#66ADAC" stroke-width="0.5" stroke-miterlimit="10"/>
<path d="M237.109 566.979V245" stroke="#66ADAC" stroke-width="0.5" stroke-miterlimit="10"/>
<path d="M273.045 566.979V245" stroke="#66ADAC" stroke-width="0.5" stroke-miterlimit="10"/>
<path d="M308.95 566.979V245" stroke="#66ADAC" stroke-width="0.5" stroke-miterlimit="10"/>
<path d="M344.888 566.979V245" stroke="#66ADAC" stroke-width="0.5" stroke-miterlimit="10"/>
<path d="M380.788 566.979V245" stroke="#66ADAC" stroke-width="0.5" stroke-miterlimit="10"/>
<path d="M414.976 566.979V245" stroke="#66ADAC" stroke-width="0.5" stroke-miterlimit="10"/>
<path d="M214.068 288.315H429.515" stroke="#66ADAC" stroke-width="0.5" stroke-miterlimit="10"/>
<path d="M214.074 250.713H429.52" stroke="#66ADAC" stroke-width="0.5" stroke-miterlimit="10"/>
<path d="M214.075 476.424H429.521" stroke="#66ADAC" stroke-width="0.5" stroke-miterlimit="10"/>
<path d="M214.074 325.924H429.52" stroke="#66ADAC" stroke-width="0.5" stroke-miterlimit="10"/>
<path d="M214.075 363.569H429.521" stroke="#66ADAC" stroke-width="0.5" stroke-miterlimit="10"/>
<path d="M214.077 401.177H429.523" stroke="#66ADAC" stroke-width="0.5" stroke-miterlimit="10"/>
<path d="M214.069 438.782H429.516" stroke="#66ADAC" stroke-width="0.5" stroke-miterlimit="10"/>
<path d="M214.075 551.672H429.521" stroke="#66ADAC" stroke-width="0.5" stroke-miterlimit="10"/>
<path d="M214 514.029H429.446" stroke="#66ADAC" stroke-width="0.5" stroke-miterlimit="10"/>
<path d="M237.283 1131.47V809.489" stroke="#66ADAC" stroke-width="0.5" stroke-miterlimit="10"/>
<path d="M273.219 1131.47V809.49" stroke="#66ADAC" stroke-width="0.5" stroke-miterlimit="10"/>
<path d="M309.124 1131.47V809.489" stroke="#66ADAC" stroke-width="0.5" stroke-miterlimit="10"/>
<path d="M345.062 1131.47V809.489" stroke="#66ADAC" stroke-width="0.5" stroke-miterlimit="10"/>
<path d="M380.962 1131.47V809.489" stroke="#66ADAC" stroke-width="0.5" stroke-miterlimit="10"/>
<path d="M415.149 1131.47V809.489" stroke="#66ADAC" stroke-width="0.5" stroke-miterlimit="10"/>
<path d="M214.242 852.804H429.688" stroke="#66ADAC" stroke-width="0.5" stroke-miterlimit="10"/>
<path d="M214.248 815.202H429.694" stroke="#66ADAC" stroke-width="0.5" stroke-miterlimit="10"/>
<path d="M214.248 890.413H429.694" stroke="#66ADAC" stroke-width="0.5" stroke-miterlimit="10"/>
<path d="M214.249 928.058H429.695" stroke="#66ADAC" stroke-width="0.5" stroke-miterlimit="10"/>
<path d="M214.251 965.666H429.697" stroke="#66ADAC" stroke-width="0.5" stroke-miterlimit="10"/>
<path d="M214.243 1003.27H429.689" stroke="#66ADAC" stroke-width="0.5" stroke-miterlimit="10"/>
<path d="M667.109 566.979V245" stroke="#66ADAC" stroke-width="0.5" stroke-miterlimit="10"/>
<path d="M703.045 566.979V245" stroke="#66ADAC" stroke-width="0.5" stroke-miterlimit="10"/>
<path d="M738.95 566.979V245" stroke="#66ADAC" stroke-width="0.5" stroke-miterlimit="10"/>
<path d="M774.888 566.979V245" stroke="#66ADAC" stroke-width="0.5" stroke-miterlimit="10"/>
<path d="M810.788 566.979V245" stroke="#66ADAC" stroke-width="0.5" stroke-miterlimit="10"/>
<path d="M844.976 566.979V245" stroke="#66ADAC" stroke-width="0.5" stroke-miterlimit="10"/>
<path d="M644.068 288.315H859.515" stroke="#66ADAC" stroke-width="0.5" stroke-miterlimit="10"/>
<path d="M644.074 250.713H859.52" stroke="#66ADAC" stroke-width="0.5" stroke-miterlimit="10"/>
<path d="M644.075 476.424H859.521" stroke="#66ADAC" stroke-width="0.5" stroke-miterlimit="10"/>
<path d="M644.074 325.924H859.52" stroke="#66ADAC" stroke-width="0.5" stroke-miterlimit="10"/>
<path d="M644.075 363.569H859.521" stroke="#66ADAC" stroke-width="0.5" stroke-miterlimit="10"/>
<path d="M644.077 401.177H859.523" stroke="#66ADAC" stroke-width="0.5" stroke-miterlimit="10"/>
<path d="M644.069 438.782H859.516" stroke="#66ADAC" stroke-width="0.5" stroke-miterlimit="10"/>
<path d="M644.075 551.672H859.521" stroke="#66ADAC" stroke-width="0.5" stroke-miterlimit="10"/>
<path d="M644 514.029H859.446" stroke="#66ADAC" stroke-width="0.5" stroke-miterlimit="10"/>
<path d="M667.283 1131.47V809.489" stroke="#66ADAC" stroke-width="0.5" stroke-miterlimit="10"/>
<path d="M703.219 1131.47V809.49" stroke="#66ADAC" stroke-width="0.5" stroke-miterlimit="10"/>
<path d="M739.124 1131.47V809.489" stroke="#66ADAC" stroke-width="0.5" stroke-miterlimit="10"/>
<path d="M775.062 1131.47V809.489" stroke="#66ADAC" stroke-width="0.5" stroke-miterlimit="10"/>
<path d="M810.962 1131.47V809.489" stroke="#66ADAC" stroke-width="0.5" stroke-miterlimit="10"/>
<path d="M845.149 1131.47V809.489" stroke="#66ADAC" stroke-width="0.5" stroke-miterlimit="10"/>
<path d="M644.242 852.804H859.688" stroke="#66ADAC" stroke-width="0.5" stroke-miterlimit="10"/>
<path d="M644.248 815.202H859.694" stroke="#66ADAC" stroke-width="0.5" stroke-miterlimit="10"/>
<path d="M644.248 890.413H859.694" stroke="#66ADAC" stroke-width="0.5" stroke-miterlimit="10"/>
<path d="M644.249 928.058H859.695" stroke="#66ADAC" stroke-width="0.5" stroke-miterlimit="10"/>
<path d="M644.251 965.666H859.697" stroke="#66ADAC" stroke-width="0.5" stroke-miterlimit="10"/>
<path d="M644.243 1003.27H859.689" stroke="#66ADAC" stroke-width="0.5" stroke-miterlimit="10"/>
<path d="M1097.11 566.979V245" stroke="#66ADAC" stroke-width="0.5" stroke-miterlimit="10"/>
<path d="M1133.04 566.979V245" stroke="#66ADAC" stroke-width="0.5" stroke-miterlimit="10"/>
<path d="M1168.95 566.979V245" stroke="#66ADAC" stroke-width="0.5" stroke-miterlimit="10"/>
<path d="M1204.89 566.979V245" stroke="#66ADAC" stroke-width="0.5" stroke-miterlimit="10"/>
<path d="M1240.79 566.979V245" stroke="#66ADAC" stroke-width="0.5" stroke-miterlimit="10"/>
<path d="M1274.98 566.979V245" stroke="#66ADAC" stroke-width="0.5" stroke-miterlimit="10"/>
<path d="M1074.07 288.315H1289.51" stroke="#66ADAC" stroke-width="0.5" stroke-miterlimit="10"/>
<path d="M1074.07 250.713H1289.52" stroke="#66ADAC" stroke-width="0.5" stroke-miterlimit="10"/>
<path d="M1074.08 476.424H1289.52" stroke="#66ADAC" stroke-width="0.5" stroke-miterlimit="10"/>
<path d="M1074.07 325.924H1289.52" stroke="#66ADAC" stroke-width="0.5" stroke-miterlimit="10"/>
<path d="M1074.08 363.569H1289.52" stroke="#66ADAC" stroke-width="0.5" stroke-miterlimit="10"/>
<path d="M1074.08 401.177H1289.52" stroke="#66ADAC" stroke-width="0.5" stroke-miterlimit="10"/>
<path d="M1074.07 438.782H1289.52" stroke="#66ADAC" stroke-width="0.5" stroke-miterlimit="10"/>
<path d="M1074.08 551.672H1289.52" stroke="#66ADAC" stroke-width="0.5" stroke-miterlimit="10"/>
<path d="M1074 514.029H1289.45" stroke="#66ADAC" stroke-width="0.5" stroke-miterlimit="10"/>
<path d="M1097.28 1131.47V809.489" stroke="#66ADAC" stroke-width="0.5" stroke-miterlimit="10"/>
<path d="M1133.22 1131.47V809.49" stroke="#66ADAC" stroke-width="0.5" stroke-miterlimit="10"/>
<path d="M1169.12 1131.47V809.489" stroke="#66ADAC" stroke-width="0.5" stroke-miterlimit="10"/>
<path d="M1205.06 1131.47V809.489" stroke="#66ADAC" stroke-width="0.5" stroke-miterlimit="10"/>
<path d="M1240.96 1131.47V809.489" stroke="#66ADAC" stroke-width="0.5" stroke-miterlimit="10"/>
<path d="M1275.15 1131.47V809.489" stroke="#66ADAC" stroke-width="0.5" stroke-miterlimit="10"/>
<path d="M1074.24 852.804H1289.69" stroke="#66ADAC" stroke-width="0.5" stroke-miterlimit="10"/>
<path d="M1074.25 815.202H1289.69" stroke="#66ADAC" stroke-width="0.5" stroke-miterlimit="10"/>
<path d="M1074.25 890.413H1289.69" stroke="#66ADAC" stroke-width="0.5" stroke-miterlimit="10"/>
<path d="M1074.25 928.058H1289.7" stroke="#66ADAC" stroke-width="0.5" stroke-miterlimit="10"/>
<path d="M1074.25 965.666H1289.7" stroke="#66ADAC" stroke-width="0.5" stroke-miterlimit="10"/>
<path d="M1074.24 1003.27H1289.69" stroke="#66ADAC" stroke-width="0.5" stroke-miterlimit="10"/>
<path d="M1528.11 566.979V245" stroke="#66ADAC" stroke-width="0.5" stroke-miterlimit="10"/>
<path d="M1564.04 566.979V245" stroke="#66ADAC" stroke-width="0.5" stroke-miterlimit="10"/>
<path d="M1599.95 566.979V245" stroke="#66ADAC" stroke-width="0.5" stroke-miterlimit="10"/>
<path d="M1635.89 566.979V245" stroke="#66ADAC" stroke-width="0.5" stroke-miterlimit="10"/>
<path d="M1671.79 566.979V245" stroke="#66ADAC" stroke-width="0.5" stroke-miterlimit="10"/>
<path d="M1705.98 566.979V245" stroke="#66ADAC" stroke-width="0.5" stroke-miterlimit="10"/>
<path d="M1505.07 288.315H1720.51" stroke="#66ADAC" stroke-width="0.5" stroke-miterlimit="10"/>
<path d="M1505.07 250.713H1720.52" stroke="#66ADAC" stroke-width="0.5" stroke-miterlimit="10"/>
<path d="M1505.08 476.424H1720.52" stroke="#66ADAC" stroke-width="0.5" stroke-miterlimit="10"/>
<path d="M1505.07 325.924H1720.52" stroke="#66ADAC" stroke-width="0.5" stroke-miterlimit="10"/>
<path d="M1505.08 363.569H1720.52" stroke="#66ADAC" stroke-width="0.5" stroke-miterlimit="10"/>
<path d="M1505.08 401.177H1720.52" stroke="#66ADAC" stroke-width="0.5" stroke-miterlimit="10"/>
<path d="M1505.07 438.782H1720.52" stroke="#66ADAC" stroke-width="0.5" stroke-miterlimit="10"/>
<path d="M1505.08 551.672H1720.52" stroke="#66ADAC" stroke-width="0.5" stroke-miterlimit="10"/>
<path d="M1505 514.029H1720.45" stroke="#66ADAC" stroke-width="0.5" stroke-miterlimit="10"/>
<path d="M1528.28 1131.47V809.489" stroke="#66ADAC" stroke-width="0.5" stroke-miterlimit="10"/>
<path d="M1564.22 1131.47V809.49" stroke="#66ADAC" stroke-width="0.5" stroke-miterlimit="10"/>
<path d="M1600.12 1131.47V809.489" stroke="#66ADAC" stroke-width="0.5" stroke-miterlimit="10"/>
<path d="M1636.06 1131.47V809.489" stroke="#66ADAC" stroke-width="0.5" stroke-miterlimit="10"/>
<path d="M1671.96 1131.47V809.489" stroke="#66ADAC" stroke-width="0.5" stroke-miterlimit="10"/>
<path d="M1706.15 1131.47V809.489" stroke="#66ADAC" stroke-width="0.5" stroke-miterlimit="10"/>
<path d="M1505.24 852.804H1720.69" stroke="#66ADAC" stroke-width="0.5" stroke-miterlimit="10"/>
<path d="M1505.25 815.202H1720.69" stroke="#66ADAC" stroke-width="0.5" stroke-miterlimit="10"/>
<path d="M1505.25 890.413H1720.69" stroke="#66ADAC" stroke-width="0.5" stroke-miterlimit="10"/>
<path d="M1505.25 928.058H1720.7" stroke="#66ADAC" stroke-width="0.5" stroke-miterlimit="10"/>
<path d="M1505.25 965.666H1720.7" stroke="#66ADAC" stroke-width="0.5" stroke-miterlimit="10"/>
<path d="M1505.24 1003.27H1720.69" stroke="#66ADAC" stroke-width="0.5" stroke-miterlimit="10"/>
<path d="M452.109 303.49V-18.4893" stroke="#66ADAC" stroke-width="0.5" stroke-miterlimit="10"/>
<path d="M488.045 303.49V-18.4888" stroke="#66ADAC" stroke-width="0.5" stroke-miterlimit="10"/>
<path d="M523.95 303.49V-18.4893" stroke="#66ADAC" stroke-width="0.5" stroke-miterlimit="10"/>
<path d="M559.888 303.49V-18.4893" stroke="#66ADAC" stroke-width="0.5" stroke-miterlimit="10"/>
<path d="M595.788 303.49V-18.4893" stroke="#66ADAC" stroke-width="0.5" stroke-miterlimit="10"/>
<path d="M629.976 303.49V-18.4893" stroke="#66ADAC" stroke-width="0.5" stroke-miterlimit="10"/>
<path d="M429.068 24.8259H644.515" stroke="#66ADAC" stroke-width="0.5" stroke-miterlimit="10"/>
<path d="M429.075 212.935H644.521" stroke="#66ADAC" stroke-width="0.5" stroke-miterlimit="10"/>
<path d="M429.074 62.4343H644.52" stroke="#66ADAC" stroke-width="0.5" stroke-miterlimit="10"/>
<path d="M429.075 100.079H644.521" stroke="#66ADAC" stroke-width="0.5" stroke-miterlimit="10"/>
<path d="M429.077 137.687H644.523" stroke="#66ADAC" stroke-width="0.5" stroke-miterlimit="10"/>
<path d="M429.069 175.293H644.516" stroke="#66ADAC" stroke-width="0.5" stroke-miterlimit="10"/>
<path d="M429.075 288.183H644.521" stroke="#66ADAC" stroke-width="0.5" stroke-miterlimit="10"/>
<path d="M429 250.54H644.446" stroke="#66ADAC" stroke-width="0.5" stroke-miterlimit="10"/>
<path d="M452.283 867.979V546" stroke="#66ADAC" stroke-width="0.5" stroke-miterlimit="10"/>
<path d="M488.219 867.979V546" stroke="#66ADAC" stroke-width="0.5" stroke-miterlimit="10"/>
<path d="M524.124 867.979V546" stroke="#66ADAC" stroke-width="0.5" stroke-miterlimit="10"/>
<path d="M560.062 867.979V546" stroke="#66ADAC" stroke-width="0.5" stroke-miterlimit="10"/>
<path d="M595.962 867.979V546" stroke="#66ADAC" stroke-width="0.5" stroke-miterlimit="10"/>
<path d="M630.149 867.979V546" stroke="#66ADAC" stroke-width="0.5" stroke-miterlimit="10"/>
<path d="M429.242 589.315H644.688" stroke="#66ADAC" stroke-width="0.5" stroke-miterlimit="10"/>
<path d="M429.248 551.713H644.694" stroke="#66ADAC" stroke-width="0.5" stroke-miterlimit="10"/>
<path d="M429.249 777.424H644.695" stroke="#66ADAC" stroke-width="0.5" stroke-miterlimit="10"/>
<path d="M429.248 626.924H644.694" stroke="#66ADAC" stroke-width="0.5" stroke-miterlimit="10"/>
<path d="M429.249 664.569H644.695" stroke="#66ADAC" stroke-width="0.5" stroke-miterlimit="10"/>
<path d="M429.251 702.177H644.697" stroke="#66ADAC" stroke-width="0.5" stroke-miterlimit="10"/>
<path d="M429.243 739.782H644.689" stroke="#66ADAC" stroke-width="0.5" stroke-miterlimit="10"/>
<path d="M429.249 852.672H644.695" stroke="#66ADAC" stroke-width="0.5" stroke-miterlimit="10"/>
<path d="M429.174 815.029H644.62" stroke="#66ADAC" stroke-width="0.5" stroke-miterlimit="10"/>
<path d="M882.283 303.49V-18.4893" stroke="#66ADAC" stroke-width="0.5" stroke-miterlimit="10"/>
<path d="M918.219 303.49V-18.4888" stroke="#66ADAC" stroke-width="0.5" stroke-miterlimit="10"/>
<path d="M954.124 303.49V-18.4893" stroke="#66ADAC" stroke-width="0.5" stroke-miterlimit="10"/>
<path d="M990.062 303.49V-18.4893" stroke="#66ADAC" stroke-width="0.5" stroke-miterlimit="10"/>
<path d="M1025.96 303.49V-18.4893" stroke="#66ADAC" stroke-width="0.5" stroke-miterlimit="10"/>
<path d="M1060.15 303.49V-18.4893" stroke="#66ADAC" stroke-width="0.5" stroke-miterlimit="10"/>
<path d="M859.242 24.8259H1074.69" stroke="#66ADAC" stroke-width="0.5" stroke-miterlimit="10"/>
<path d="M859.249 212.935H1074.7" stroke="#66ADAC" stroke-width="0.5" stroke-miterlimit="10"/>
<path d="M859.248 62.4343H1074.69" stroke="#66ADAC" stroke-width="0.5" stroke-miterlimit="10"/>
<path d="M859.249 100.079H1074.7" stroke="#66ADAC" stroke-width="0.5" stroke-miterlimit="10"/>
<path d="M859.251 137.687H1074.7" stroke="#66ADAC" stroke-width="0.5" stroke-miterlimit="10"/>
<path d="M859.243 175.293H1074.69" stroke="#66ADAC" stroke-width="0.5" stroke-miterlimit="10"/>
<path d="M859.249 288.183H1074.7" stroke="#66ADAC" stroke-width="0.5" stroke-miterlimit="10"/>
<path d="M859.174 250.54H1074.62" stroke="#66ADAC" stroke-width="0.5" stroke-miterlimit="10"/>
<path d="M882.457 867.979V546" stroke="#66ADAC" stroke-width="0.5" stroke-miterlimit="10"/>
<path d="M918.393 867.979V546" stroke="#66ADAC" stroke-width="0.5" stroke-miterlimit="10"/>
<path d="M954.298 867.979V546" stroke="#66ADAC" stroke-width="0.5" stroke-miterlimit="10"/>
<path d="M990.235 867.979V546" stroke="#66ADAC" stroke-width="0.5" stroke-miterlimit="10"/>
<path d="M1026.14 867.979V546" stroke="#66ADAC" stroke-width="0.5" stroke-miterlimit="10"/>
<path d="M1060.32 867.979V546" stroke="#66ADAC" stroke-width="0.5" stroke-miterlimit="10"/>
<path d="M859.416 589.315H1074.86" stroke="#66ADAC" stroke-width="0.5" stroke-miterlimit="10"/>
<path d="M859.422 551.713H1074.87" stroke="#66ADAC" stroke-width="0.5" stroke-miterlimit="10"/>
<path d="M859.423 777.424H1074.87" stroke="#66ADAC" stroke-width="0.5" stroke-miterlimit="10"/>
<path d="M859.422 626.924H1074.87" stroke="#66ADAC" stroke-width="0.5" stroke-miterlimit="10"/>
<path d="M859.423 664.569H1074.87" stroke="#66ADAC" stroke-width="0.5" stroke-miterlimit="10"/>
<path d="M859.425 702.177H1074.87" stroke="#66ADAC" stroke-width="0.5" stroke-miterlimit="10"/>
<path d="M859.417 739.782H1074.86" stroke="#66ADAC" stroke-width="0.5" stroke-miterlimit="10"/>
<path d="M859.423 852.672H1074.87" stroke="#66ADAC" stroke-width="0.5" stroke-miterlimit="10"/>
<path d="M859.348 815.029H1074.79" stroke="#66ADAC" stroke-width="0.5" stroke-miterlimit="10"/>
<path d="M1312.46 303.49V-18.4893" stroke="#66ADAC" stroke-width="0.5" stroke-miterlimit="10"/>
<path d="M1348.39 303.49V-18.4888" stroke="#66ADAC" stroke-width="0.5" stroke-miterlimit="10"/>
<path d="M1384.3 303.49V-18.4893" stroke="#66ADAC" stroke-width="0.5" stroke-miterlimit="10"/>
<path d="M1420.24 303.49V-18.4893" stroke="#66ADAC" stroke-width="0.5" stroke-miterlimit="10"/>
<path d="M1456.14 303.49V-18.4893" stroke="#66ADAC" stroke-width="0.5" stroke-miterlimit="10"/>
<path d="M1490.32 303.49V-18.4893" stroke="#66ADAC" stroke-width="0.5" stroke-miterlimit="10"/>
<path d="M1289.42 24.8259H1504.86" stroke="#66ADAC" stroke-width="0.5" stroke-miterlimit="10"/>
<path d="M1289.42 212.935H1504.87" stroke="#66ADAC" stroke-width="0.5" stroke-miterlimit="10"/>
<path d="M1289.42 62.4343H1504.87" stroke="#66ADAC" stroke-width="0.5" stroke-miterlimit="10"/>
<path d="M1289.42 100.079H1504.87" stroke="#66ADAC" stroke-width="0.5" stroke-miterlimit="10"/>
<path d="M1289.42 137.687H1504.87" stroke="#66ADAC" stroke-width="0.5" stroke-miterlimit="10"/>
<path d="M1289.42 175.293H1504.86" stroke="#66ADAC" stroke-width="0.5" stroke-miterlimit="10"/>
<path d="M1289.42 288.183H1504.87" stroke="#66ADAC" stroke-width="0.5" stroke-miterlimit="10"/>
<path d="M1289.35 250.54H1504.79" stroke="#66ADAC" stroke-width="0.5" stroke-miterlimit="10"/>
<path d="M1312.63 867.979V546" stroke="#66ADAC" stroke-width="0.5" stroke-miterlimit="10"/>
<path d="M1348.57 867.979V546" stroke="#66ADAC" stroke-width="0.5" stroke-miterlimit="10"/>
<path d="M1384.47 867.979V546" stroke="#66ADAC" stroke-width="0.5" stroke-miterlimit="10"/>
<path d="M1420.41 867.979V546" stroke="#66ADAC" stroke-width="0.5" stroke-miterlimit="10"/>
<path d="M1456.31 867.979V546" stroke="#66ADAC" stroke-width="0.5" stroke-miterlimit="10"/>
<path d="M1490.5 867.979V546" stroke="#66ADAC" stroke-width="0.5" stroke-miterlimit="10"/>
<path d="M1289.59 589.315H1505.04" stroke="#66ADAC" stroke-width="0.5" stroke-miterlimit="10"/>
<path d="M1289.6 551.713H1505.04" stroke="#66ADAC" stroke-width="0.5" stroke-miterlimit="10"/>
<path d="M1289.6 777.424H1505.04" stroke="#66ADAC" stroke-width="0.5" stroke-miterlimit="10"/>
<path d="M1289.6 626.924H1505.04" stroke="#66ADAC" stroke-width="0.5" stroke-miterlimit="10"/>
<path d="M1289.6 664.569H1505.04" stroke="#66ADAC" stroke-width="0.5" stroke-miterlimit="10"/>
<path d="M1289.6 702.177H1505.04" stroke="#66ADAC" stroke-width="0.5" stroke-miterlimit="10"/>
<path d="M1289.59 739.782H1505.04" stroke="#66ADAC" stroke-width="0.5" stroke-miterlimit="10"/>
<path d="M1289.6 852.672H1505.04" stroke="#66ADAC" stroke-width="0.5" stroke-miterlimit="10"/>
<path d="M1289.52 815.029H1504.97" stroke="#66ADAC" stroke-width="0.5" stroke-miterlimit="10"/>
<path d="M1742.63 303.49V-18.4893" stroke="#66ADAC" stroke-width="0.5" stroke-miterlimit="10"/>
<path d="M1778.57 303.49V-18.4888" stroke="#66ADAC" stroke-width="0.5" stroke-miterlimit="10"/>
<path d="M1814.47 303.49V-18.4893" stroke="#66ADAC" stroke-width="0.5" stroke-miterlimit="10"/>
<path d="M1850.41 303.49V-18.4893" stroke="#66ADAC" stroke-width="0.5" stroke-miterlimit="10"/>
<path d="M1886.31 303.49V-18.4893" stroke="#66ADAC" stroke-width="0.5" stroke-miterlimit="10"/>
<path d="M1719.59 24.8259H1935.04" stroke="#66ADAC" stroke-width="0.5" stroke-miterlimit="10"/>
<path d="M1719.6 212.935H1935.04" stroke="#66ADAC" stroke-width="0.5" stroke-miterlimit="10"/>
<path d="M1719.6 62.4343H1935.04" stroke="#66ADAC" stroke-width="0.5" stroke-miterlimit="10"/>
<path d="M1719.6 100.079H1935.04" stroke="#66ADAC" stroke-width="0.5" stroke-miterlimit="10"/>
<path d="M1719.6 137.687H1935.04" stroke="#66ADAC" stroke-width="0.5" stroke-miterlimit="10"/>
<path d="M1719.59 175.293H1935.04" stroke="#66ADAC" stroke-width="0.5" stroke-miterlimit="10"/>
<path d="M1719.6 288.183H1935.04" stroke="#66ADAC" stroke-width="0.5" stroke-miterlimit="10"/>
<path d="M1719.52 250.54H1934.97" stroke="#66ADAC" stroke-width="0.5" stroke-miterlimit="10"/>
<path d="M1742.8 867.979V546" stroke="#66ADAC" stroke-width="0.5" stroke-miterlimit="10"/>
<path d="M1778.74 867.979V546" stroke="#66ADAC" stroke-width="0.5" stroke-miterlimit="10"/>
<path d="M1814.65 867.979V546" stroke="#66ADAC" stroke-width="0.5" stroke-miterlimit="10"/>
<path d="M1850.58 867.979V546" stroke="#66ADAC" stroke-width="0.5" stroke-miterlimit="10"/>
<path d="M1886.48 867.979V546" stroke="#66ADAC" stroke-width="0.5" stroke-miterlimit="10"/>
<path d="M1719.76 589.315H1935.21" stroke="#66ADAC" stroke-width="0.5" stroke-miterlimit="10"/>
<path d="M1719.77 551.713H1935.22" stroke="#66ADAC" stroke-width="0.5" stroke-miterlimit="10"/>
<path d="M1719.77 777.424H1935.22" stroke="#66ADAC" stroke-width="0.5" stroke-miterlimit="10"/>
<path d="M1719.77 626.924H1935.22" stroke="#66ADAC" stroke-width="0.5" stroke-miterlimit="10"/>
<path d="M1719.77 664.569H1935.22" stroke="#66ADAC" stroke-width="0.5" stroke-miterlimit="10"/>
<path d="M1719.77 702.177H1935.22" stroke="#66ADAC" stroke-width="0.5" stroke-miterlimit="10"/>
<path d="M1719.76 739.782H1935.21" stroke="#66ADAC" stroke-width="0.5" stroke-miterlimit="10"/>
<path d="M1719.77 852.672H1935.22" stroke="#66ADAC" stroke-width="0.5" stroke-miterlimit="10"/>
<path d="M1719.7 815.029H1935.14" stroke="#66ADAC" stroke-width="0.5" stroke-miterlimit="10"/>
<path d="M237.109 303.49V-18.4893" stroke="#66ADAC" stroke-width="0.5" stroke-miterlimit="10"/>
<path d="M273.045 303.49V-18.4888" stroke="#66ADAC" stroke-width="0.5" stroke-miterlimit="10"/>
<path d="M308.95 303.49V-18.4893" stroke="#66ADAC" stroke-width="0.5" stroke-miterlimit="10"/>
<path d="M344.888 303.49V-18.4893" stroke="#66ADAC" stroke-width="0.5" stroke-miterlimit="10"/>
<path d="M380.788 303.49V-18.4893" stroke="#66ADAC" stroke-width="0.5" stroke-miterlimit="10"/>
<path d="M414.976 303.49V-18.4893" stroke="#66ADAC" stroke-width="0.5" stroke-miterlimit="10"/>
<path d="M214.068 24.8259H429.515" stroke="#66ADAC" stroke-width="0.5" stroke-miterlimit="10"/>
<path d="M214.075 212.935H429.521" stroke="#66ADAC" stroke-width="0.5" stroke-miterlimit="10"/>
<path d="M214.074 62.4343H429.52" stroke="#66ADAC" stroke-width="0.5" stroke-miterlimit="10"/>
<path d="M214.075 100.079H429.521" stroke="#66ADAC" stroke-width="0.5" stroke-miterlimit="10"/>
<path d="M214.077 137.687H429.523" stroke="#66ADAC" stroke-width="0.5" stroke-miterlimit="10"/>
<path d="M214.069 175.293H429.516" stroke="#66ADAC" stroke-width="0.5" stroke-miterlimit="10"/>
<path d="M214.075 288.183H429.521" stroke="#66ADAC" stroke-width="0.5" stroke-miterlimit="10"/>
<path d="M214 250.54H429.446" stroke="#66ADAC" stroke-width="0.5" stroke-miterlimit="10"/>
<path d="M237.283 867.979V546" stroke="#66ADAC" stroke-width="0.5" stroke-miterlimit="10"/>
<path d="M273.219 867.979V546" stroke="#66ADAC" stroke-width="0.5" stroke-miterlimit="10"/>
<path d="M309.124 867.979V546" stroke="#66ADAC" stroke-width="0.5" stroke-miterlimit="10"/>
<path d="M345.062 867.979V546" stroke="#66ADAC" stroke-width="0.5" stroke-miterlimit="10"/>
<path d="M380.962 867.979V546" stroke="#66ADAC" stroke-width="0.5" stroke-miterlimit="10"/>
<path d="M415.149 867.979V546" stroke="#66ADAC" stroke-width="0.5" stroke-miterlimit="10"/>
<path d="M214.242 589.315H429.688" stroke="#66ADAC" stroke-width="0.5" stroke-miterlimit="10"/>
<path d="M214.248 551.713H429.694" stroke="#66ADAC" stroke-width="0.5" stroke-miterlimit="10"/>
<path d="M214.249 777.424H429.695" stroke="#66ADAC" stroke-width="0.5" stroke-miterlimit="10"/>
<path d="M214.248 626.924H429.694" stroke="#66ADAC" stroke-width="0.5" stroke-miterlimit="10"/>
<path d="M214.249 664.569H429.695" stroke="#66ADAC" stroke-width="0.5" stroke-miterlimit="10"/>
<path d="M214.251 702.177H429.697" stroke="#66ADAC" stroke-width="0.5" stroke-miterlimit="10"/>
<path d="M214.243 739.782H429.689" stroke="#66ADAC" stroke-width="0.5" stroke-miterlimit="10"/>
<path d="M214.249 852.672H429.695" stroke="#66ADAC" stroke-width="0.5" stroke-miterlimit="10"/>
<path d="M214.174 815.029H429.62" stroke="#66ADAC" stroke-width="0.5" stroke-miterlimit="10"/>
<path d="M667.283 303.49V-18.4893" stroke="#66ADAC" stroke-width="0.5" stroke-miterlimit="10"/>
<path d="M703.219 303.49V-18.4888" stroke="#66ADAC" stroke-width="0.5" stroke-miterlimit="10"/>
<path d="M739.124 303.49V-18.4893" stroke="#66ADAC" stroke-width="0.5" stroke-miterlimit="10"/>
<path d="M775.062 303.49V-18.4893" stroke="#66ADAC" stroke-width="0.5" stroke-miterlimit="10"/>
<path d="M810.962 303.49V-18.4893" stroke="#66ADAC" stroke-width="0.5" stroke-miterlimit="10"/>
<path d="M845.149 303.49V-18.4893" stroke="#66ADAC" stroke-width="0.5" stroke-miterlimit="10"/>
<path d="M644.242 24.8259H859.688" stroke="#66ADAC" stroke-width="0.5" stroke-miterlimit="10"/>
<path d="M644.249 212.935H859.695" stroke="#66ADAC" stroke-width="0.5" stroke-miterlimit="10"/>
<path d="M644.248 62.4343H859.694" stroke="#66ADAC" stroke-width="0.5" stroke-miterlimit="10"/>
<path d="M644.249 100.079H859.695" stroke="#66ADAC" stroke-width="0.5" stroke-miterlimit="10"/>
<path d="M644.251 137.687H859.697" stroke="#66ADAC" stroke-width="0.5" stroke-miterlimit="10"/>
<path d="M644.243 175.293H859.689" stroke="#66ADAC" stroke-width="0.5" stroke-miterlimit="10"/>
<path d="M644.249 288.183H859.695" stroke="#66ADAC" stroke-width="0.5" stroke-miterlimit="10"/>
<path d="M644.174 250.54H859.62" stroke="#66ADAC" stroke-width="0.5" stroke-miterlimit="10"/>
<path d="M667.457 867.979V546" stroke="#66ADAC" stroke-width="0.5" stroke-miterlimit="10"/>
<path d="M703.393 867.979V546" stroke="#66ADAC" stroke-width="0.5" stroke-miterlimit="10"/>
<path d="M739.298 867.979V546" stroke="#66ADAC" stroke-width="0.5" stroke-miterlimit="10"/>
<path d="M775.235 867.979V546" stroke="#66ADAC" stroke-width="0.5" stroke-miterlimit="10"/>
<path d="M811.136 867.979V546" stroke="#66ADAC" stroke-width="0.5" stroke-miterlimit="10"/>
<path d="M845.323 867.979V546" stroke="#66ADAC" stroke-width="0.5" stroke-miterlimit="10"/>
<path d="M644.416 589.315H859.862" stroke="#66ADAC" stroke-width="0.5" stroke-miterlimit="10"/>
<path d="M644.422 551.713H859.868" stroke="#66ADAC" stroke-width="0.5" stroke-miterlimit="10"/>
<path d="M644.423 777.424H859.869" stroke="#66ADAC" stroke-width="0.5" stroke-miterlimit="10"/>
<path d="M644.422 626.924H859.868" stroke="#66ADAC" stroke-width="0.5" stroke-miterlimit="10"/>
<path d="M644.423 664.569H859.869" stroke="#66ADAC" stroke-width="0.5" stroke-miterlimit="10"/>
<path d="M644.425 702.177H859.871" stroke="#66ADAC" stroke-width="0.5" stroke-miterlimit="10"/>
<path d="M644.417 739.782H859.863" stroke="#66ADAC" stroke-width="0.5" stroke-miterlimit="10"/>
<path d="M644.423 852.672H859.869" stroke="#66ADAC" stroke-width="0.5" stroke-miterlimit="10"/>
<path d="M644.348 815.029H859.794" stroke="#66ADAC" stroke-width="0.5" stroke-miterlimit="10"/>
<path d="M1097.46 303.49V-18.4893" stroke="#66ADAC" stroke-width="0.5" stroke-miterlimit="10"/>
<path d="M1133.39 303.49V-18.4888" stroke="#66ADAC" stroke-width="0.5" stroke-miterlimit="10"/>
<path d="M1169.3 303.49V-18.4893" stroke="#66ADAC" stroke-width="0.5" stroke-miterlimit="10"/>
<path d="M1205.24 303.49V-18.4893" stroke="#66ADAC" stroke-width="0.5" stroke-miterlimit="10"/>
<path d="M1241.14 303.49V-18.4893" stroke="#66ADAC" stroke-width="0.5" stroke-miterlimit="10"/>
<path d="M1275.32 303.49V-18.4893" stroke="#66ADAC" stroke-width="0.5" stroke-miterlimit="10"/>
<path d="M1074.42 24.8259H1289.86" stroke="#66ADAC" stroke-width="0.5" stroke-miterlimit="10"/>
<path d="M1074.42 212.935H1289.87" stroke="#66ADAC" stroke-width="0.5" stroke-miterlimit="10"/>
<path d="M1074.42 62.4343H1289.87" stroke="#66ADAC" stroke-width="0.5" stroke-miterlimit="10"/>
<path d="M1074.42 100.079H1289.87" stroke="#66ADAC" stroke-width="0.5" stroke-miterlimit="10"/>
<path d="M1074.42 137.687H1289.87" stroke="#66ADAC" stroke-width="0.5" stroke-miterlimit="10"/>
<path d="M1074.42 175.293H1289.86" stroke="#66ADAC" stroke-width="0.5" stroke-miterlimit="10"/>
<path d="M1074.42 288.183H1289.87" stroke="#66ADAC" stroke-width="0.5" stroke-miterlimit="10"/>
<path d="M1074.35 250.54H1289.79" stroke="#66ADAC" stroke-width="0.5" stroke-miterlimit="10"/>
<path d="M1097.63 867.979V546" stroke="#66ADAC" stroke-width="0.5" stroke-miterlimit="10"/>
<path d="M1133.57 867.979V546" stroke="#66ADAC" stroke-width="0.5" stroke-miterlimit="10"/>
<path d="M1169.47 867.979V546" stroke="#66ADAC" stroke-width="0.5" stroke-miterlimit="10"/>
<path d="M1205.41 867.979V546" stroke="#66ADAC" stroke-width="0.5" stroke-miterlimit="10"/>
<path d="M1241.31 867.979V546" stroke="#66ADAC" stroke-width="0.5" stroke-miterlimit="10"/>
<path d="M1275.5 867.979V546" stroke="#66ADAC" stroke-width="0.5" stroke-miterlimit="10"/>
<path d="M1074.59 589.315H1290.04" stroke="#66ADAC" stroke-width="0.5" stroke-miterlimit="10"/>
<path d="M1074.6 551.713H1290.04" stroke="#66ADAC" stroke-width="0.5" stroke-miterlimit="10"/>
<path d="M1074.6 777.424H1290.04" stroke="#66ADAC" stroke-width="0.5" stroke-miterlimit="10"/>
<path d="M1074.6 626.924H1290.04" stroke="#66ADAC" stroke-width="0.5" stroke-miterlimit="10"/>
<path d="M1074.6 664.569H1290.04" stroke="#66ADAC" stroke-width="0.5" stroke-miterlimit="10"/>
<path d="M1074.6 702.177H1290.04" stroke="#66ADAC" stroke-width="0.5" stroke-miterlimit="10"/>
<path d="M1074.59 739.782H1290.04" stroke="#66ADAC" stroke-width="0.5" stroke-miterlimit="10"/>
<path d="M1074.6 852.672H1290.04" stroke="#66ADAC" stroke-width="0.5" stroke-miterlimit="10"/>
<path d="M1074.52 815.029H1289.97" stroke="#66ADAC" stroke-width="0.5" stroke-miterlimit="10"/>
<path d="M1527.63 303.49V-18.4893" stroke="#66ADAC" stroke-width="0.5" stroke-miterlimit="10"/>
<path d="M1563.57 303.49V-18.4888" stroke="#66ADAC" stroke-width="0.5" stroke-miterlimit="10"/>
<path d="M1599.47 303.49V-18.4893" stroke="#66ADAC" stroke-width="0.5" stroke-miterlimit="10"/>
<path d="M1635.41 303.49V-18.4893" stroke="#66ADAC" stroke-width="0.5" stroke-miterlimit="10"/>
<path d="M1671.31 303.49V-18.4893" stroke="#66ADAC" stroke-width="0.5" stroke-miterlimit="10"/>
<path d="M1705.5 303.49V-18.4893" stroke="#66ADAC" stroke-width="0.5" stroke-miterlimit="10"/>
<path d="M1504.59 24.8259H1720.04" stroke="#66ADAC" stroke-width="0.5" stroke-miterlimit="10"/>
<path d="M1504.6 212.935H1720.04" stroke="#66ADAC" stroke-width="0.5" stroke-miterlimit="10"/>
<path d="M1504.6 62.4343H1720.04" stroke="#66ADAC" stroke-width="0.5" stroke-miterlimit="10"/>
<path d="M1504.6 100.079H1720.04" stroke="#66ADAC" stroke-width="0.5" stroke-miterlimit="10"/>
<path d="M1504.6 137.687H1720.04" stroke="#66ADAC" stroke-width="0.5" stroke-miterlimit="10"/>
<path d="M1504.59 175.293H1720.04" stroke="#66ADAC" stroke-width="0.5" stroke-miterlimit="10"/>
<path d="M1504.6 288.183H1720.04" stroke="#66ADAC" stroke-width="0.5" stroke-miterlimit="10"/>
<path d="M1504.52 250.54H1719.97" stroke="#66ADAC" stroke-width="0.5" stroke-miterlimit="10"/>
<path d="M1527.8 867.979V546" stroke="#66ADAC" stroke-width="0.5" stroke-miterlimit="10"/>
<path d="M1563.74 867.979V546" stroke="#66ADAC" stroke-width="0.5" stroke-miterlimit="10"/>
<path d="M1599.65 867.979V546" stroke="#66ADAC" stroke-width="0.5" stroke-miterlimit="10"/>
<path d="M1635.58 867.979V546" stroke="#66ADAC" stroke-width="0.5" stroke-miterlimit="10"/>
<path d="M1671.48 867.979V546" stroke="#66ADAC" stroke-width="0.5" stroke-miterlimit="10"/>
<path d="M1705.67 867.979V546" stroke="#66ADAC" stroke-width="0.5" stroke-miterlimit="10"/>
<path d="M1504.76 589.315H1720.21" stroke="#66ADAC" stroke-width="0.5" stroke-miterlimit="10"/>
<path d="M1504.77 551.713H1720.22" stroke="#66ADAC" stroke-width="0.5" stroke-miterlimit="10"/>
<path d="M1504.77 777.424H1720.22" stroke="#66ADAC" stroke-width="0.5" stroke-miterlimit="10"/>
<path d="M1504.77 626.924H1720.22" stroke="#66ADAC" stroke-width="0.5" stroke-miterlimit="10"/>
<path d="M1504.77 664.569H1720.22" stroke="#66ADAC" stroke-width="0.5" stroke-miterlimit="10"/>
<path d="M1504.77 702.177H1720.22" stroke="#66ADAC" stroke-width="0.5" stroke-miterlimit="10"/>
<path d="M1504.76 739.782H1720.21" stroke="#66ADAC" stroke-width="0.5" stroke-miterlimit="10"/>
<path d="M1504.77 852.672H1720.22" stroke="#66ADAC" stroke-width="0.5" stroke-miterlimit="10"/>
<path d="M1504.7 815.029H1720.14" stroke="#66ADAC" stroke-width="0.5" stroke-miterlimit="10"/>
</svg>
